<?xml version="1.0" encoding="UTF-8" standalone="no"?>
<svg width="449px" height="326px" viewBox="0 0 449 326" version="1.1" xmlns="http://www.w3.org/2000/svg" xmlns:xlink="http://www.w3.org/1999/xlink">
    <!-- Generator: Sketch 40.3 (33839) - http://www.bohemiancoding.com/sketch -->
    <title>Combined Shape</title>
    <desc>Created with Sketch.</desc>
    <defs></defs>
    <g id="Page-1" stroke="none" stroke-width="1" fill="none" fill-rule="evenodd">
        <g id="favicon-thin" transform="translate(-26.000000, -101.000000)" fill="#FFFFFF">
            <path d="M254.543275,252.545656 L226.790198,252.527095 L226.800278,267.599393 L270.417275,267.628564 C271.598819,289.700875 265.946201,297.485407 265.946201,297.485407 L278.099348,301.085441 C278.099348,301.085441 288.309299,282.303812 285.14188,267.638411 L335.887818,267.672349 L334.981445,252.599452 L310.518979,252.583092 L310.117487,225.462664 L386.002686,223.869168 L386.028896,263.058578 L402.970691,245.38426 L402.945759,208.105974 L309.859616,208.04372 L309.558183,187.682148 L335.834334,187.699721 L334.92796,172.626823 L309.33505,172.609707 L309.048117,153.227651 L456.915667,154.238551 L456.941344,192.632692 L474.330961,175.217454 L474.306724,138.97725 L308.800728,136.516725 L308.505802,116.594695 L335.786792,116.61294 L334.880419,101.540042 L226.689172,101.467686 L226.699252,116.539984 L254.135383,116.558332 L254.192813,135.704887 L161.378536,134.325046 C-40.0766006,161.423773 2.91945748,423.444009 170.459707,426.387466 C170.459707,426.387466 302.06896,443.83477 335.76172,276.775249 L317.190979,276.762829 C317.190979,276.762829 300.211063,411.320028 174.753984,406.866041 C25.697193,405.98884 -4.47890403,169.359515 159.712345,152.206713 L254.244248,152.852983 L254.303398,172.572903 L226.736714,172.554467 L226.746794,187.626765 L254.348607,187.645224 L254.409681,208.006636 L177.959955,207.955507 C123.769231,213.097671 98.7418308,297.750985 165.300607,325.073837 C226.309914,345.004555 242.365299,276.110598 242.365299,276.110598 L224.194182,275.281299 C224.194182,275.281299 213.44974,322.809737 174.570497,310.608427 C120.225384,288.902798 141.448932,228.064666 180.953226,228.174956 L254.465545,226.631287 L254.543275,252.545656 L254.543275,252.545656 Z M266.160348,252.553426 L298.945064,252.575351 L298.767019,225.70101 L265.989684,226.389294 L266.160348,252.553426 L266.160348,252.553426 Z M265.869827,208.0143 L298.649989,208.036223 L298.515092,187.674762 L265.737012,187.652841 L265.869827,208.0143 L265.869827,208.0143 Z M265.638697,172.580484 L298.415237,172.602404 L298.28639,153.154078 L265.510521,152.930005 L265.638697,172.580484 L265.638697,172.580484 Z M265.399251,135.871489 L298.17512,136.358758 L298.044135,116.587698 L265.273323,116.565781 L265.399251,135.871489 L265.399251,135.871489 Z M424.69281,187.759148 L368.920356,187.721848 L368.910276,172.64955 L423.786437,172.68625 L424.69281,187.759148 L424.69281,187.759148 Z M181.720041,185.189661 C181.720041,185.189661 131.952454,174.688423 110.644621,214.594623 L98.3044835,206.837636 C123.968536,160.994911 183.064927,171.722174 183.064927,171.722174 L181.720041,185.189661 L181.720041,185.189661 Z M131.602043,333.922607 C131.602043,333.922607 87.1525364,309.197516 97.2521339,265.100729 L82.8498719,262.859143 C72.1432441,314.29422 123.781575,344.968973 123.781575,344.968973 L131.602043,333.922607 L131.602043,333.922607 Z M175.074103,357.593932 C175.074103,357.593932 224.841691,368.09517 246.149523,328.18897 L258.489661,335.945957 C232.825609,381.788682 173.729217,371.061419 173.729217,371.061419 L175.074103,357.593932 L175.074103,357.593932 Z" id="Combined-Shape"></path>
        </g>
    </g>
</svg>