<?xml version="1.0" encoding="UTF-8" standalone="no"?>
<svg width="407px" height="104px" viewBox="0 0 407 104" version="1.1" xmlns="http://www.w3.org/2000/svg" xmlns:xlink="http://www.w3.org/1999/xlink">
    <!-- Generator: Sketch 40.3 (33839) - http://www.bohemiancoding.com/sketch -->
    <title>Group Copy</title>
    <desc>Created with Sketch.</desc>
    <defs></defs>
    <g id="Page-1" stroke="none" stroke-width="1" fill="none" fill-rule="evenodd">
        <g id="Artboard" transform="translate(-17.000000, -207.000000)">
            <g id="Group-Copy" transform="translate(17.000000, 207.000000)">
                <path d="M336.708355,48.4402321 L327.931587,48.4343623 L327.934775,53.2008987 L341.728425,53.2101237 C342.102082,60.190378 340.314471,62.6521961 340.314471,62.6521961 L344.157841,63.7906884 C344.157841,63.7906884 347.386685,57.8510953 346.385005,53.2132379 L362.433146,53.2239707 L362.14651,48.4572447 L354.410382,48.4520709 L354.283412,39.8753757 L378.281715,39.3714407 L378.290003,51.7648893 L383.647758,46.1754774 L383.639874,34.3864122 L354.201862,34.3667245 L354.106535,27.9274825 L362.416232,27.9330398 L362.129596,23.1663139 L354.035971,23.160901 L353.94523,17.0314258 L400.707579,17.3511178 L400.715699,29.4930664 L406.215075,23.9855875 L406.20741,12.52481 L353.866994,11.7466818 L353.773725,5.44644251 L362.401197,5.45221243 L362.114561,0.685486457 L327.899638,0.662604047 L327.902826,5.42914045 L336.579361,5.43494319 L336.597523,11.4899421 L307.245487,11.0535747 C243.53634,19.6234071 257.133622,102.485954 310.11736,103.416807 C310.11736,103.416807 351.738107,108.934427 362.393269,56.1027156 L356.520367,56.0987878 C356.520367,56.0987878 351.150557,98.6518074 311.475403,97.2432568 C264.336963,96.9658465 254.793928,22.1330445 306.718563,16.7085595 L336.613789,16.912939 L336.632495,23.1492618 L327.914673,23.1434315 L327.917861,27.9099679 L336.646792,27.9158056 L336.666106,34.3549968 L312.489275,34.3388277 C295.351739,35.9650105 287.436953,62.736184 308.485822,71.3768947 C327.7797,77.6798813 332.857133,55.8925231 332.857133,55.8925231 L327.110611,55.6302616 C327.110611,55.6302616 323.712737,70.6608848 311.417376,66.8022834 C294.231015,59.9379904 300.942853,40.6982452 313.435882,40.7331239 L336.683773,40.2449466 L336.708355,48.4402321 L336.708355,48.4402321 Z M340.382194,48.4426891 L350.750191,48.449623 L350.693885,39.9507514 L340.328222,40.1684176 L340.382194,48.4426891 L340.382194,48.4426891 Z M340.290318,34.3574207 L350.656875,34.3643536 L350.614215,27.9251468 L340.248316,27.9182143 L340.290318,34.3574207 L340.290318,34.3574207 Z M340.217225,23.1516592 L350.582636,23.1585914 L350.541889,17.0081588 L340.176689,16.9372968 L340.217225,23.1516592 L340.217225,23.1516592 Z M340.141501,11.5426292 L350.5067,11.6967254 L350.465277,5.44422987 L340.101677,5.43729886 L340.141501,11.5426292 L340.141501,11.5426292 Z M390.517267,27.9518334 L372.879516,27.9400375 L372.876328,23.1735011 L390.230631,23.1851074 L390.517267,27.9518334 L390.517267,27.9518334 Z M313.678383,27.1392463 C313.678383,27.1392463 297.939641,23.8182842 291.201149,36.4384139 L287.298644,33.9853067 C295.414768,19.4877815 314.103696,22.8802232 314.103696,22.8802232 L313.678383,27.1392463 L313.678383,27.1392463 Z M297.828825,74.1752725 C297.828825,74.1752725 283.771898,66.3560902 286.965844,52.4107089 L282.411203,51.7018189 C279.025287,67.9678965 295.355642,77.6686286 295.355642,77.6686286 L297.828825,74.1752725 L297.828825,74.1752725 Z M311.576639,81.6612069 C311.576639,81.6612069 327.315382,84.982169 334.053874,72.3620393 L337.956379,74.8151465 C329.840255,89.3126717 311.151326,85.92023 311.151326,85.92023 L311.576639,81.6612069 L311.576639,81.6612069 Z" id="Combined-Shape" fill="#8D0000"></path>
                <path d="M19.4568238,51.8915349 L24.1828238,51.8915349 L29.4092238,65.6431163 L34.6912238,51.8915349 L39.4172238,51.8915349 L32.5784238,69.0949302 L39.3616238,85.4075349 L52.7056238,51.6688372 L58.1544238,51.6688372 L41.6412238,91.1976744 L37.3044238,91.1976744 L29.4648238,72.5467442 L21.5696238,91.1976744 L17.2328238,91.1976744 L0.775223796,51.6688372 L6.1684238,51.6688372 L19.5680238,85.4075349 L26.2956238,69.0949302 L19.4568238,51.8915349 Z M95.7598816,51.6688372 L95.7598816,91.1976744 L90.7558816,91.1976744 L90.7558816,73.2148372 L69.0162816,73.2148372 L69.0162816,91.1976744 L64.0122816,91.1976744 L64.0122816,51.6688372 L69.0162816,51.6688372 L69.0162816,68.7608837 L90.7558816,68.7608837 L90.7558816,51.6688372 L95.7598816,51.6688372 Z M105.898939,91.1976744 L105.898939,51.6688372 L110.902939,51.6688372 L110.902939,91.1976744 L105.898939,91.1976744 Z M144.227197,59.9643256 C143.782395,59.4446951 143.189334,58.9436303 142.447997,58.4611163 C141.70666,57.9786022 140.872669,57.5424903 139.945997,57.1527674 C139.019326,56.7630446 138.009269,56.4475593 136.915797,56.2063023 C135.822325,55.9650453 134.682537,55.8444186 133.496397,55.8444186 C130.419849,55.8444186 128.168071,56.4197152 126.740997,57.5703256 C125.313923,58.720936 124.600397,60.2983621 124.600397,62.3026512 C124.600397,63.3790286 124.804262,64.2698104 125.211997,64.9750233 C125.619733,65.6802361 126.259126,66.2833696 127.130197,66.7844419 C128.001268,67.2855141 129.085457,67.7216261 130.382797,68.0927907 C131.680137,68.4639553 133.218388,68.8536724 134.997597,69.2619535 C137.036274,69.7073511 138.880322,70.2176948 140.529797,70.793 C142.179272,71.3683052 143.587791,72.0827864 144.755397,72.9364651 C145.923003,73.7901438 146.812594,74.8293892 147.424197,76.0542326 C148.0358,77.2790759 148.341597,78.7822702 148.341597,80.5638605 C148.341597,82.4568002 147.970934,84.0991791 147.229597,85.4910465 C146.48826,86.8829139 145.478204,88.0335071 144.199397,88.9428605 C142.920591,89.8522138 141.410139,90.5203002 139.667997,90.9471395 C137.925855,91.3739789 136.035474,91.5873953 133.996797,91.5873953 C130.957315,91.5873953 128.075411,91.1141675 125.350997,90.1676977 C122.626584,89.2212278 120.152408,87.8386603 117.928397,86.0199535 L120.319197,81.7886977 C120.912267,82.4196776 121.681393,83.050648 122.626597,83.6816279 C123.571802,84.3126078 124.646725,84.8786254 125.851397,85.3796977 C127.05607,85.8807699 128.35339,86.2890449 129.743397,86.6045349 C131.133404,86.9200248 132.588256,87.0777674 134.107997,87.0777674 C136.925078,87.0777674 139.111989,86.5767027 140.668797,85.5745581 C142.225605,84.5724136 143.003997,83.0692193 143.003997,81.0649302 C143.003997,79.9514363 142.7538,79.0142596 142.253397,78.2533721 C141.752995,77.4924846 141.020935,76.8336772 140.057197,76.2769302 C139.093459,75.7201833 137.898071,75.2283975 136.470997,74.8015581 C135.043923,74.3747188 133.422273,73.9386069 131.605997,73.4932093 C129.604387,73.0106953 127.843738,72.4910726 126.323997,71.9343256 C124.804256,71.3775786 123.534736,70.7094923 122.515397,69.9300465 C121.496059,69.1506008 120.726933,68.2041451 120.207997,67.0906512 C119.689061,65.9771572 119.429597,64.6409845 119.429597,63.082093 C119.429597,61.1891533 119.781727,59.5189375 120.485997,58.0713953 C121.190267,56.6238532 122.172524,55.3990283 123.432797,54.3968837 C124.69307,53.3947392 126.194255,52.643142 127.936397,52.1420698 C129.678539,51.6409975 131.56892,51.3904651 133.607597,51.3904651 C136.276411,51.3904651 138.68572,51.7987401 140.835597,52.6153023 C142.985475,53.4318645 144.894389,54.5267838 146.562397,55.900093 L144.227197,59.9643256 Z M184.056655,56.1227907 L170.434655,56.1227907 L170.434655,91.1976744 L165.430655,91.1976744 L165.430655,56.1227907 L151.808655,56.1227907 L151.808655,51.6688372 L184.056655,51.6688372 L184.056655,56.1227907 Z M190.414913,91.1976744 L190.414913,51.6688372 L195.418913,51.6688372 L195.418913,86.7437209 L217.436513,86.7437209 L217.436513,91.1976744 L190.414913,91.1976744 Z M250.371571,86.7437209 L250.371571,91.1976744 L223.572371,91.1976744 L223.572371,51.6688372 L249.871171,51.6688372 L249.871171,56.1227907 L228.576371,56.1227907 L228.576371,68.927907 L247.091171,68.927907 L247.091171,73.1034884 L228.576371,73.1034884 L228.576371,86.7437209 L250.371571,86.7437209 Z" id="WHISTLE" fill="#4A4A4A"></path>
                <path d="M124.018582,15.7349767 L115.225839,15.7349767 L115.547525,14.0886047 L134.991639,14.0886047 L134.634211,15.7349767 L125.841468,15.7349767 L120.765982,39.5 L118.978839,39.5 L124.018582,15.7349767 Z M134.003605,39.5 L139.400776,14.0886047 L149.480262,14.0886047 C150.338095,14.0886047 151.112516,14.2735214 151.803548,14.6433605 C152.49458,15.0131995 153.078374,15.5023342 153.554948,16.1107791 C154.031522,16.719224 154.394904,17.4111705 154.645105,18.1866395 C154.895306,18.9621085 155.020405,19.7673912 155.020405,20.6025116 C155.020405,21.6523773 154.823821,22.6843321 154.430648,23.698407 C154.037474,24.7124818 153.501337,25.6311005 152.822219,26.4542907 C152.143102,27.2774809 151.356767,27.9753925 150.463191,28.5480465 C149.569615,29.1207005 148.610524,29.4786039 147.585891,29.6217674 L151.446119,39.5 L149.373033,39.5 L145.584291,29.908093 L137.863833,29.908093 L135.826491,39.5 L134.003605,39.5 Z M146.620833,28.2259302 C147.502495,28.2259302 148.342444,28.0052231 149.140705,27.5638023 C149.938966,27.1223815 150.629988,26.5497361 151.213791,25.8458488 C151.797594,25.1419616 152.262246,24.3486091 152.607762,23.4657674 C152.953278,22.5829258 153.126033,21.7000974 153.126033,20.8172558 C153.126033,20.1491595 153.024763,19.5049333 152.822219,18.8845581 C152.619675,18.2641829 152.339692,17.7213628 151.982262,17.2560814 C151.624832,16.7908 151.195922,16.4209665 150.695519,16.1465698 C150.195117,15.872173 149.635151,15.7349767 149.015605,15.7349767 L140.866233,15.7349767 L138.221262,28.2259302 L146.620833,28.2259302 Z M169.473285,14.0886047 L171.045971,14.0886047 L175.799771,39.5 L173.869656,39.5 L172.296971,31.1249767 L160.894999,31.1249767 L155.819514,39.5 L153.853656,39.5 L169.473285,14.0886047 Z M172.153999,29.6217674 L169.794971,16.3076279 L161.645599,29.6217674 L172.153999,29.6217674 Z M185.391622,14.0886047 L186.821337,14.0886047 L198.830937,36.4577907 L203.548994,14.1243953 L205.371879,14.1243953 L199.974708,39.5 L198.366279,39.5 L186.499651,17.5245116 L181.817337,39.5 L179.994451,39.5 L185.391622,14.0886047 Z M214.534817,39.7147442 C210.769884,39.7147442 207.838999,38.4501522 205.742074,35.9209302 L207.028817,34.4535116 C207.791335,35.5749591 208.833824,36.4637525 210.156317,37.1199186 C211.478809,37.7760847 213.06935,38.1041628 214.927988,38.1041628 C217.334686,38.1041628 219.240953,37.603098 220.646845,36.6009535 C222.052738,35.5988089 222.755674,34.1552652 222.755674,32.2702791 C222.755674,30.9579469 222.201665,29.9617825 221.093631,29.2817558 C219.985597,28.6017292 218.383142,28.0231187 216.286217,27.545907 C215.213926,27.3073011 214.266749,27.0448386 213.44466,26.7585116 C212.62257,26.4721846 211.925591,26.1321764 211.353702,25.7384767 C210.781814,25.3447771 210.346947,24.8675726 210.049088,24.3068488 C209.75123,23.7461251 209.602302,23.0720737 209.602302,22.2846744 C209.602302,20.9723423 209.864414,19.7972261 210.388645,18.7592907 C210.912877,17.7213553 211.627727,16.844492 212.533217,16.1286744 C213.438707,15.4128569 214.516939,14.8640717 215.767945,14.4823023 C217.018952,14.100533 218.371209,13.9096512 219.82476,13.9096512 C221.397453,13.9096512 222.749711,14.1542185 223.881574,14.6433605 C225.013437,15.1325024 225.960613,15.8781345 226.723131,16.8802791 L225.472131,18.311907 C224.328354,16.474642 222.326774,15.5560233 219.467331,15.5560233 C218.061438,15.5560233 216.864065,15.7170798 215.875174,16.0391977 C214.886283,16.3613156 214.070163,16.7967647 213.426788,17.3455581 C212.783414,17.8943516 212.312804,18.5445428 212.014945,19.2961512 C211.717087,20.0477596 211.56816,20.8649723 211.56816,21.747814 C211.56816,22.3681891 211.693258,22.8931141 211.94346,23.3226047 C212.193661,23.7520952 212.568957,24.1219287 213.06936,24.4321163 C213.569762,24.7423039 214.195256,25.0166965 214.94586,25.2553023 C215.696463,25.4939082 216.572155,25.7325104 217.57296,25.9711163 C218.645251,26.2335827 219.628169,26.5139404 220.521745,26.8121977 C221.415321,27.110455 222.171871,27.4802885 222.791417,27.9217093 C223.410963,28.3631301 223.893486,28.8880551 224.239002,29.4965 C224.584518,30.1049449 224.757274,30.850577 224.757274,31.7334186 C224.757274,33.0218902 224.501119,34.167181 223.988802,35.1693256 C223.476486,36.1714701 222.761636,37.0065781 221.844231,37.6746744 C220.926826,38.3427708 219.842637,38.8498006 218.591631,39.1957791 C217.340625,39.5417575 215.988367,39.7147442 214.534817,39.7147442 L214.534817,39.7147442 Z M233.598525,14.1243953 L235.421411,14.1243953 L230.02424,39.5 L228.201354,39.5 L233.598525,14.1243953 Z M248.122891,15.7349767 L239.330148,15.7349767 L239.651834,14.0886047 L259.095948,14.0886047 L258.73852,15.7349767 L249.945777,15.7349767 L244.870291,39.5 L243.083148,39.5 L248.122891,15.7349767 Z" id="TRANSIT" fill="#9B9B9B"></path>
            </g>
        </g>
    </g>
</svg>